{
    "accessors": [
        {
            "bufferView": 4,
            "byteOffset": 0,
            "componentType": 5123,
            "count": 240,
            "max": [
                239
            ],
            "min": [
                0
            ],
            "name": "accessor_buffer_Icosphere_2",
            "type": "SCALAR"
        },
        {
            "bufferView": 2,
            "byteOffset": 0,
            "componentType": 5123,
            "count": 36,
            "max": [
                23
            ],
            "min": [
                0
            ],
            "name": "accessor_buffer_Cube_2",
            "type": "SCALAR"
        },
        {
            "bufferView": 1,
            "byteOffset": 0,
            "componentType": 5126,
            "count": 24,
            "max": [
                1.0000004768371582,
                1.0000003576278687,
                1.0
            ],
            "min": [
                -1.0000003576278687,
                -1.0000005960464478,
                -1.0
            ],
            "name": "accessor_buffer_Cube_0",
            "type": "VEC3"
        },
        {
            "bufferView": 3,
            "byteOffset": 12,
            "componentType": 5126,
            "count": 240,
            "max": [
                0.9920774102210999,
                0.9435215592384338,
                0.9435237646102905
            ],
            "min": [
                -0.9920774102210999,
                -0.9435215592384338,
                -0.9435237646102905
            ],
            "name": "accessor_buffer_Icosphere_1",
            "type": "VEC3"
        },
        {
            "bufferView": 3,
            "byteOffset": 0,
            "componentType": 5126,
            "count": 240,
            "max": [
                0.9510578513145447,
                0.9999999403953552,
                1.0
            ],
            "min": [
                -0.9510578513145447,
                -0.9999999403953552,
                -1.0
            ],
            "name": "accessor_buffer_Icosphere_0",
            "type": "VEC3"
        },
        {
            "bufferView": 1,
            "byteOffset": 12,
            "componentType": 5126,
            "count": 24,
            "max": [
                1.0,
                1.0,
                1.0
            ],
            "min": [
                -1.0,
                -1.0,
                -1.0
            ],
            "name": "accessor_buffer_Cube_1",
            "type": "VEC3"
        }
    ],
    "asset": {
        "version": "2.0"
    },
    "bufferViews": [
        {
            "buffer": 0,
            "byteLength": 0,
            "byteOffset": 0,
            "byteStride": 24,
            "name": "bufferView_buffer_Circle_0",
            "target": 34962
        },
        {
            "buffer": 0,
            "byteLength": 576,
            "byteOffset": 0,
            "byteStride": 24,
            "name": "bufferView_buffer_Cube_0",
            "target": 34962
        },
        {
            "buffer": 0,
            "byteLength": 72,
            "byteOffset": 576,
            "name": "bufferView_buffer_Cube_1",
            "target": 34963
        },
        {
            "buffer": 0,
            "byteLength": 5760,
            "byteOffset": 648,
            "byteStride": 24,
            "name": "bufferView_buffer_Icosphere_0",
            "target": 34962
        },
        {
            "buffer": 0,
            "byteLength": 480,
            "byteOffset": 6408,
            "name": "bufferView_buffer_Icosphere_1",
            "target": 34963
        }
    ],
    "buffers": [
        {
            "byteLength": 6888,
            "name": "buffer_combined",
            "uri": "buffer_combined.bin"
        }
    ],
    "cameras": [
        {
            "name": "Camera",
            "perspective": {
                "aspectRatio": 1.703595982340029,
                "yfov": 0.5033799409866333,
                "zfar": 100.0,
                "znear": 0.10000000149011612
            },
            "type": "perspective"
        }
    ],
    "materials": [
        {
            "emissiveFactor": [
                0.0,
                0.0,
                0.0
            ],
            "name": "Material",
            "pbrMetallicRoughness": {
                "baseColorFactor": [
                    0.64000004529953,
                    0.64000004529953,
                    0.64000004529953,
                    1.0
                ],
                "metallicFactor": 0.0,
                "roughnessFactor": 1.0
            }
        }
    ],
    "meshes": [
        {
            "name": "Circle",
            "primitives": []
        },
        {
            "name": "Cube",
            "primitives": [
                {
                    "attributes": {
                        "NORMAL": 5,
                        "POSITION": 2
                    },
                    "indices": 1,
                    "material": 0,
                    "mode": 4
                }
            ]
        },
        {
            "name": "Icosphere",
            "primitives": [
                {
                    "attributes": {
                        "NORMAL": 3,
                        "POSITION": 4
                    },
                    "indices": 0,
                    "mode": 4
                }
            ]
        }
    ],
    "nodes": [
        {
            "camera": 0,
            "name": "Camera",
            "rotation": [
                0.483536034822464,
                0.20870360732078552,
                0.33687159419059753,
                0.7804827094078064
            ],
            "scale": [
                1.0,
                1.0,
                1.0
            ],
            "translation": [
                7.481131553649902,
                -6.5076398849487305,
                5.34366512298584
            ]
        },
        {
            "mesh": 0,
            "name": "Circle",
            "rotation": [
                0.0,
                0.0,
                0.0,
                1.0
            ],
            "scale": [
                1.0,
                1.0,
                1.0
            ],
            "translation": [
                -2.3101601600646973,
                -9.390190124511719,
                -1.8231902122497559
            ]
        },
        {
            "mesh": 1,
            "name": "Cube",
            "rotation": [
                0.0,
                0.0,
                0.0,
                1.0
            ],
            "scale": [
                1.0,
                1.0,
                1.0
            ],
            "translation": [
                0.0,
                0.0,
                0.0
            ]
        },
        {
            "mesh": 2,
            "name": "Icosphere",
            "rotation": [
                0.0,
                0.0,
                0.0,
                1.0
            ],
            "scale": [
                4.7108154296875,
                4.7108154296875,
                4.7108154296875
            ],
            "translation": [
                4.123959064483643,
                10.827012062072754,
                1.2088404893875122
            ]
        },
        {
            "name": "Lamp",
            "rotation": [
                0.16907575726509094,
                0.27217137813568115,
                0.7558802962303162,
                0.570947527885437
            ],
            "scale": [
                1.0,
                0.9999999403953552,
                1.0
            ],
            "translation": [
                4.076245307922363,
                1.0054539442062378,
                5.903861999511719
            ]
        },
        {
            "name": "SurfCircle",
            "rotation": [
                0.0,
                0.0,
                0.0,
                1.0
            ],
            "scale": [
                1.0,
                1.0,
                1.0
            ],
            "translation": [
                -3.402639389038086,
                -9.054003715515137,
                -1.0954201221466064
            ]
        },
        {
            "name": "SurfPatch",
            "rotation": [
                0.0,
                0.0,
                0.0,
                1.0
            ],
            "scale": [
                9.163060188293457,
                9.163060188293457,
                9.163060188293457
            ],
            "translation": [
                -2.5639915466308594,
                -9.096233367919922,
                -2.6701955795288086
            ]
        },
        {
            "children": [
                1,
                6,
                5,
                3,
                2,
                4,
                0
            ],
            "matrix": [
                1.0,
                0.0,
                0.0,
                0.0,
                0.0,
                0.0,
                -1.0,
                0.0,
                0.0,
                1.0,
                0.0,
                0.0,
                0.0,
                0.0,
                0.0,
                1.0
            ],
            "name": "Scene_root"
        }
    ],
    "samplers": [
        {
            "name": "default"
        }
    ],
    "scene": 0,
    "scenes": [
        {
            "extras": {
                "active_camera": 0,
                "background_color": [
                    0.05087608844041824,
                    0.05087608844041824,
                    0.05087608844041824
                ],
                "frames_per_second": 24
            },
            "name": "Scene",
            "nodes": [
                7
            ]
        }
    ]
}
